<svg width="35" height="35" viewBox="0 0 35 35" fill="none" xmlns="http://www.w3.org/2000/svg">
<path d="M15.75 16.737C15.75 14.5723 14.6685 11.4223 12.5405 7.50401C12.1765 6.83201 11.2228 6.83901 10.8133 7.47776C10.2428 8.36501 9.394 9.27326 8.26 10.199L7.75775 10.5963L6.608 11.4835C4.256 13.377 3.3285 15.0588 3.53325 17.5455C3.71175 19.7435 5.0295 21.3168 7.2905 22.0378C6.4925 22.9775 5.4425 23.7178 4.13 24.2673C3.87874 24.3735 3.67964 24.5748 3.57607 24.8272C3.47249 25.0795 3.47283 25.3626 3.577 25.6148C3.794 26.1398 4.39075 26.3883 4.9105 26.1713C7.40425 25.13 9.1945 23.457 10.2323 21.1785C10.6208 20.328 10.9323 19.488 11.1633 18.6603L11.221 18.4468L11.361 17.8798L11.4538 17.4248L11.5098 17.101L11.6008 16.4465C11.6585 15.9268 11.683 15.414 11.676 14.9065L11.6708 14.875C11.6814 14.6143 11.791 14.3674 11.9773 14.1846C12.1636 14.0019 12.4126 13.8971 12.6735 13.8915C12.8082 13.8901 12.9418 13.9153 13.0668 13.9655C13.1917 14.0158 13.3055 14.0902 13.4017 14.1844C13.4979 14.2787 13.5746 14.391 13.6274 14.5149C13.6802 14.6388 13.7081 14.7718 13.7095 14.9065C13.741 16.912 13.3385 18.9578 12.5055 21.0385L12.4705 21.161C12.4485 21.2853 12.4644 21.4133 12.516 21.5285C12.656 21.8435 13.0235 21.9835 13.3333 21.84L13.4908 21.7613C13.5848 21.7078 13.6734 21.645 13.755 21.574C14.7385 20.7165 15.75 18.9018 15.75 16.737ZM27.9895 12.8695C27.9243 11.7552 27.4357 10.708 26.6237 9.94221C25.8117 9.17639 24.7377 8.74989 23.6215 8.75001H16.6845C16.1368 8.75001 15.7465 8.99501 15.7465 9.62151C15.7465 10.248 16.0965 10.4895 16.6845 10.4895H24.0695L24.2795 10.5C24.8207 10.5522 25.3231 10.8041 25.6887 11.2066C26.0543 11.6091 26.2569 12.1333 26.257 12.677V22.3125L26.2465 22.5225C26.1943 23.0637 25.9424 23.5661 25.5399 23.9317C25.1375 24.2973 24.6132 24.4999 24.0695 24.5H10.4965C9.96975 24.5 9.618 24.8378 9.618 25.3663C9.618 25.8965 9.968 26.2413 10.4965 26.25H23.6215L23.8788 26.243C24.9927 26.1774 26.0395 25.6886 26.8049 24.8766C27.5704 24.0647 27.9966 22.9909 27.9965 21.875V20.4418H30.0388L30.2348 20.4295C30.5844 20.3821 30.9049 20.2094 31.137 19.9436C31.369 19.6778 31.4967 19.3368 31.4965 18.984V16.0685L31.486 15.89C31.4425 15.5367 31.2713 15.2115 31.0048 14.9756C30.7383 14.7397 30.3947 14.6093 30.0388 14.609L27.9965 14.5828V13.125L27.9895 12.8678V12.8695Z" fill="black"/>
</svg>
