<svg width="61" height="35" viewBox="0 0 61 35" fill="none" xmlns="http://www.w3.org/2000/svg">
<path d="M8 9.4C8 8.84771 8.44772 8.39999 9 8.39999H11C11.5523 8.39999 12 8.84771 12 9.39999V26C12 26.5523 11.5523 27 11 27H9C8.44772 27 8 26.5523 8 26V9.4ZM16 9.4C16 8.84771 16.4477 8.39999 17 8.39999H19C19.5523 8.39999 20 8.84771 20 9.39999V26C20 26.5523 19.5523 27 19 27H17C16.4477 27 16 26.5523 16 26V9.4ZM24 9.4C24 8.84771 24.4477 8.39999 25 8.39999H27C27.5523 8.39999 28 8.84771 28 9.39999V26C28 26.5523 27.5523 27 27 27H25C24.4477 27 24 26.5523 24 26V9.4ZM32 9.4C32 8.84771 32.4477 8.39999 33 8.39999H35C35.5523 8.39999 36 8.84771 36 9.39999V26C36 26.5523 35.5523 27 35 27H33C32.4477 27 32 26.5523 32 26V9.4ZM40 9.4C40 8.84771 40.4477 8.39999 41 8.39999H43C43.5523 8.39999 44 8.84771 44 9.39999V26C44 26.5523 43.5523 27 43 27H41C40.4477 27 40 26.5523 40 26V9.4Z" fill="#0AAE24"/>
<path d="M52.0018 10.0001V2.94883C51.994 2.16028 51.6738 1.407 51.1114 0.854209C50.549 0.301418 49.7903 -0.00574899 49.0018 8.15122e-05H3C2.21143 -0.00574899 1.45275 0.301418 0.890348 0.854209C0.32795 1.407 0.00775675 2.16028 0 2.94883V31.6513C0.00775675 32.4399 0.32795 33.1932 0.890348 33.746C1.45275 34.2987 2.21143 34.6059 3 34.6001H49.0018C49.7903 34.6059 50.549 34.2987 51.1114 33.746C51.6738 33.1932 51.994 32.4399 52.0018 31.6513V24.6001H59.0018C59.554 24.6001 60.0018 24.1524 60.0018 23.6001V11.0001C60.0018 10.4478 59.554 10.0001 59.0018 10.0001H52.0018ZM56.0018 19.6001C56.0018 20.1524 55.554 20.6001 55.0018 20.6001H49.0018C48.4495 20.6001 48.0018 21.0478 48.0018 21.6001V29.6001C48.0018 30.1524 47.554 30.6001 47.0018 30.6001H5C4.44772 30.6001 4 30.1524 4 29.6001V5.00008C4 4.4478 4.44772 4.00008 5 4.00008H47.0018C47.554 4.00008 48.0018 4.4478 48.0018 5.00008V13.0001C48.0018 13.5524 48.4495 14.0001 49.0018 14.0001H55.0018C55.554 14.0001 56.0018 14.4478 56.0018 15.0001V19.6001Z" fill="#0AAE24"/>
</svg>
